<?xml version="1.0" standalone="no"?>
<!DOCTYPE svg PUBLIC "-//W3C//DTD SVG 20010904//EN"
 "http://www.w3.org/TR/2001/REC-SVG-20010904/DTD/svg10.dtd">
<svg version="1.0" xmlns="http://www.w3.org/2000/svg"
 width="32" height="32" viewBox="186.6 169.5 882 882"
 preserveAspectRatio="xMidYMid meet">

<g transform="translate(0.000000,1254.000000) scale(0.100000,-0.100000)"
fill="#0c5c38" stroke="none">
<path d="M6030 9439 c-372 -21 -781 -102 -1159 -228 -615 -206 -1122 -533
-1617 -1043 -599 -619 -1001 -1368 -1124 -2098 -64 -385 -59 -848 15 -1200
138 -661 613 -1177 1265 -1373 204 -62 344 -81 590 -81 386 1 567 38 1225 254
540 177 683 209 981 217 339 10 525 -26 1094 -212 499 -163 654 -204 915 -241
147 -21 469 -24 605 -6 783 105 1360 621 1560 1395 106 415 99 999 -21 1484
-201 822 -769 1673 -1515 2271 -498 399 -1043 648 -1709 781 -376 75 -736 101
-1105 80z m-1237 -2202 c479 -155 683 -758 472 -1393 -111 -334 -331 -609
-668 -836 -235 -158 -467 -238 -690 -238 -190 0 -329 53 -447 171 -170 170
-246 465 -211 824 43 445 233 842 547 1145 191 185 384 295 594 341 122 27
296 21 403 -14z m3393 8 c124 -30 288 -112 404 -199 106 -79 275 -253 356
-366 135 -186 231 -391 289 -615 134 -516 51 -978 -212 -1174 -128 -96 -240
-126 -432 -118 -270 11 -521 125 -811 366 -295 245 -482 570 -557 962 -27 143
-24 415 5 532 67 267 210 461 416 563 113 55 189 72 332 73 87 1 133 -4 210
-24z"/>
<path d="M4370 6974 c-75 -20 -231 -96 -304 -148 -159 -114 -312 -296 -401
-480 -105 -216 -139 -398 -109 -593 7 -50 49 -93 89 -93 45 0 71 33 138 175
208 440 444 728 779 951 55 36 104 77 110 90 17 36 -1 76 -42 96 -44 22 -180
23 -260 2z"/>
<path d="M7900 6979 c-41 -17 -60 -40 -60 -74 0 -38 15 -53 135 -130 196 -125
374 -292 497 -467 87 -123 153 -241 242 -435 43 -92 89 -178 102 -190 25 -23
57 -29 89 -17 33 13 58 84 63 180 24 458 -316 955 -758 1110 -84 29 -264 43
-310 23z"/>
</g>
</svg>
